<svg width="244" height="63" viewBox="0 0 244 63" fill="none" xmlns="http://www.w3.org/2000/svg">
<path d="M7.52068 30.2872C7.45338 30.2797 7.38523 30.2861 7.3205 30.306C7.25578 30.326 7.19587 30.3591 7.14451 30.4032C7.09316 30.4474 7.05147 30.5017 7.02205 30.5627C6.99262 30.6237 6.9761 30.6901 6.97352 30.7578C6.78748 34.194 7.45502 51.5501 8.8886 51.5501C12.1716 51.5501 15.1044 43.5341 14.7433 38.7026C14.404 34.1995 12.0074 30.9548 7.5371 30.3091L7.52068 30.2872ZM2.34997 48.2562C1.61676 41.3181 0.839788 34.3855 0.117529 27.4639C-0.183412 24.5858 -0.166998 22.4573 3.45524 22.8567C6.29599 23.2523 9.0555 24.0983 11.6299 25.3627C20.0125 29.3516 24.056 40.1362 19.5857 48.6337C17.6268 52.3709 11.7722 58.4827 7.09389 58.3678C2.41563 58.2529 2.67279 51.3367 2.34997 48.2726" fill="#222222"/>
<path d="M59.4525 45.4221C59.4525 47.1238 64.8694 46.5493 66.2428 47.7695C68.0867 49.411 68.809 53.0879 67.95 55.3532C66.7352 58.5651 62.5932 59.8017 59.633 58.3079C56.3883 56.6664 55.8029 52.8636 55.4636 49.5861C55.1064 45.5074 55.0845 41.4063 55.398 37.3241C55.4855 35.6826 56.1914 29.9264 59.1187 33.0781C61.3785 35.5184 59.4251 42.4291 59.4525 45.444" fill="#222222"/>
<path d="M86.1483 46.6967C85.9021 49.4654 85.9131 49.3943 88.337 49.9305C89.7049 50.2369 92.2711 50.6473 91.4723 52.8305C90.7281 54.8659 86.0663 54.0944 84.6327 53.3065C82.1814 51.9605 82.0172 49.0167 81.8093 46.5216C81.5357 43.1456 79.8122 31.4855 86.7612 33.034C87.768 33.2529 89.1578 34.0134 89.1523 35.2664C89.1523 36.7219 88.151 36.421 87.2044 37.1432C85.2017 38.6698 85.7106 40.3551 85.7106 42.8885C87.0621 42.6368 91.0017 41.92 90.9743 44.6668C90.9743 46.5545 87.4287 46.5107 86.1593 46.6967" fill="#222222"/>
<path d="M71.5936 45.3179C71.7414 41.3619 71.2763 36.8313 71.9985 32.941C72.5129 30.1559 75.1174 28.695 76.2445 32.1804C77.4045 35.7698 76.1351 41.0609 76.1078 44.8418C76.1078 47.7309 75.8615 51.1671 76.5345 53.9959C77.2842 57.1859 78.7232 55.5827 80.7368 56.7974C84.4083 58.9861 79.8175 61.1474 77.3881 60.6932C70.6306 59.4348 72.1682 50.2697 71.5936 45.3179Z" fill="#222222"/>
<path d="M27.0064 57.9681C18.7059 54.6304 22.7604 41.7884 30.7326 46.3736C33.1729 47.7744 35.4437 51.6374 34.601 54.4443C33.7201 57.3935 29.8188 59.1007 27.0064 57.9681Z" fill="#222222"/>
<path d="M42.9222 47.5229C47.2996 48.2452 46.0137 43.5724 46.2545 41.1539C46.6375 37.3566 50.495 37.953 51.7261 40.9679C54.0735 46.7077 49.2639 53.1423 43.2779 52.8961C40.274 52.7703 37.6202 50.7786 36.1976 48.185C35.1032 46.2371 33.3304 41.0062 35.0212 39.0802C37.281 36.5085 39.776 39.1458 40.3451 41.3783C40.7883 43.1237 40.4764 47.1126 42.9222 47.5229Z" fill="#222222"/>
<path d="M114.005 33.5212C113.946 33.4245 113.862 33.3458 113.762 33.2935C113.661 33.2413 113.549 33.2175 113.436 33.2249C113.323 33.2322 113.214 33.2703 113.122 33.3351C113.029 33.3999 112.956 33.4889 112.91 33.5923C111.734 36.1749 109.934 41.1487 111.159 41.6794C112.385 42.2102 116.894 42.2266 116.894 41.0009C116.894 38.4457 115 35.108 113.999 33.5212H114.005ZM109.841 55.8838C109.518 60.1736 104.484 57.6512 103.981 54.7293C103.433 51.5941 104.243 47.9773 104.768 44.8803C105.42 41.0502 107.958 26.1125 112.675 26.1125C118.541 26.1125 122.464 41.9804 123.071 45.3564C123.503 47.7311 125.479 57.3119 122.628 58.6908C120.91 59.528 118.677 56.7155 118.251 55.3695C117.758 53.7663 118.552 47.9992 116.719 47.5231C115.427 47.1839 112.035 46.6313 110.765 48.1797C109.704 49.482 109.857 55.3969 109.824 55.8729" fill="#222222"/>
<path d="M167.84 46.2153C167.126 46.2153 166.428 46.0035 165.834 45.6067C165.24 45.2099 164.777 44.6459 164.504 43.986C164.23 43.3262 164.159 42.6 164.298 41.8995C164.438 41.199 164.782 40.5555 165.287 40.0505C165.792 39.5454 166.435 39.2015 167.136 39.0621C167.836 38.9228 168.562 38.9943 169.222 39.2676C169.882 39.541 170.446 40.0038 170.843 40.5977C171.24 41.1916 171.451 41.8898 171.451 42.604C171.451 43.5618 171.071 44.4804 170.394 45.1576C169.716 45.8349 168.798 46.2153 167.84 46.2153ZM186.099 33.2968C176.529 20.1648 168.261 20.4384 162.866 21.6093C154.708 23.3712 149.111 30.2928 146.222 50.9429C144.969 59.889 153.335 62.7179 157.854 62.1816C163.047 61.5688 167.468 56.9781 172.321 54.1438C176.743 51.5666 177.492 57.7879 184.031 57.7879C189.946 57.7879 196.276 47.2878 186.072 33.2968" fill="#222222"/>
<path d="M202.783 25.6363C202.068 25.6363 201.37 25.4244 200.776 25.0273C200.182 24.6303 199.719 24.0659 199.446 23.4057C199.172 22.7455 199.101 22.0191 199.241 21.3185C199.381 20.6178 199.725 19.9743 200.231 19.4695C200.737 18.9647 201.381 18.6212 202.081 18.4824C202.782 18.3437 203.509 18.416 204.168 18.6902C204.828 18.9644 205.392 19.4281 205.788 20.0227C206.184 20.6173 206.395 21.316 206.394 22.0305C206.394 22.5045 206.3 22.9738 206.119 23.4116C205.937 23.8495 205.671 24.2472 205.336 24.5821C205 24.917 204.602 25.1825 204.164 25.3634C203.726 25.5443 203.257 25.637 202.783 25.6363ZM229.047 15.5083C224.904 8.39511 219.198 0.871582 208.752 0.871582C201.847 0.871582 190.745 5.39664 187.084 17.3467C183.801 28.104 189.694 32.9027 194.411 35.1296C196.955 36.3389 202.378 37.7451 207.05 34.1995C212.303 30.2106 213.223 30.8617 214.289 31.108C217.572 31.8631 220.823 37.7943 227.897 36.0325C234.163 34.4512 233.418 23.0701 229.047 15.5302" fill="#222222"/>
<path d="M239.103 8.2747H239.65C239.825 8.28867 240 8.24021 240.143 8.13791C240.198 8.08295 240.24 8.01696 240.267 7.94432C240.295 7.87168 240.306 7.79405 240.301 7.71659C240.301 7.3281 240.088 7.13659 239.65 7.13659H239.103V8.2747ZM240.564 9.01337L241.658 10.5673H240.433L239.47 9.16658H239.125L239.092 10.5673H237.998V6.24471H239.519C240.026 6.20635 240.531 6.33512 240.958 6.61131C241.118 6.74287 241.245 6.91073 241.328 7.10101C241.411 7.2913 241.447 7.49855 241.434 7.70564C241.46 7.98576 241.39 8.26627 241.236 8.50167C241.082 8.73707 240.853 8.91353 240.586 9.00243L240.564 9.01337ZM241.341 11.5139C241.839 11.2358 242.245 10.8172 242.506 10.3102C242.777 9.74366 242.917 9.12394 242.917 8.4963C242.917 7.86866 242.777 7.24894 242.506 6.68245C242.245 6.174 241.839 5.75355 241.341 5.47321C240.799 5.19389 240.197 5.04816 239.587 5.04816C238.977 5.04816 238.376 5.19389 237.834 5.47321C237.329 5.75323 236.917 6.17321 236.646 6.68245C236.376 7.24894 236.236 7.86866 236.236 8.4963C236.236 9.12394 236.376 9.74366 236.646 10.3102C236.912 10.8147 237.316 11.2325 237.812 11.5139C238.355 11.7907 238.956 11.9349 239.565 11.9349C240.175 11.9349 240.776 11.7907 241.319 11.5139H241.341ZM241.866 4.57038C242.529 4.94247 243.074 5.49445 243.437 6.16264C243.807 6.88484 244 7.68475 244 8.4963C244 9.30785 243.807 10.1078 243.437 10.83C243.075 11.4978 242.53 12.0483 241.866 12.4167C241.15 12.7871 240.355 12.9804 239.549 12.9804C238.743 12.9804 237.948 12.7871 237.232 12.4167C236.581 12.045 236.047 11.4994 235.689 10.8409C235.322 10.1177 235.131 9.31816 235.131 8.50724C235.131 7.69632 235.322 6.89682 235.689 6.17358C236.055 5.50625 236.601 4.95473 237.265 4.58133C237.98 4.20739 238.775 4.01208 239.582 4.01208C240.389 4.01208 241.184 4.20739 241.899 4.58133" fill="#222222"/>
</svg>
